<svg width="21" height="21" viewBox="0 0 21 21" fill="none" xmlns="http://www.w3.org/2000/svg">
<path fill-rule="evenodd" clip-rule="evenodd" d="M0.75 10.5C0.75 5.11522 5.11522 0.75 10.5 0.75C15.8848 0.75 20.25 5.11522 20.25 10.5C20.25 15.8848 15.8848 20.25 10.5 20.25C5.11522 20.25 0.75 15.8848 0.75 10.5ZM14.1103 8.68593C14.3511 8.34887 14.273 7.88046 13.9359 7.6397C13.5989 7.39894 13.1305 7.47701 12.8897 7.81407L9.6543 12.3436L8.03033 10.7197C7.73744 10.4268 7.26256 10.4268 6.96967 10.7197C6.67678 11.0126 6.67678 11.4874 6.96967 11.7803L9.21967 14.0303C9.37556 14.1862 9.59215 14.2656 9.81186 14.2474C10.0316 14.2293 10.2322 14.1153 10.3603 13.9359L14.1103 8.68593Z" fill="#0D1230"/>
</svg>
