<svg width="27" height="25" viewBox="0 0 27 25" fill="none" xmlns="http://www.w3.org/2000/svg">
<path fill-rule="evenodd" clip-rule="evenodd" d="M8.8125 5.4375C8.8125 2.84867 10.9112 0.75 13.5 0.75C16.0888 0.75 18.1875 2.84867 18.1875 5.4375C18.1875 8.02633 16.0888 10.125 13.5 10.125C10.9112 10.125 8.8125 8.02633 8.8125 5.4375Z" fill="#0D1230"/>
<path fill-rule="evenodd" clip-rule="evenodd" d="M18.1875 9.1875C18.1875 7.11643 19.8664 5.4375 21.9375 5.4375C24.0086 5.4375 25.6875 7.11643 25.6875 9.1875C25.6875 11.2586 24.0086 12.9375 21.9375 12.9375C19.8664 12.9375 18.1875 11.2586 18.1875 9.1875Z" fill="#0D1230"/>
<path fill-rule="evenodd" clip-rule="evenodd" d="M1.3125 9.1875C1.3125 7.11643 2.99143 5.4375 5.0625 5.4375C7.13357 5.4375 8.8125 7.11643 8.8125 9.1875C8.8125 11.2586 7.13357 12.9375 5.0625 12.9375C2.99143 12.9375 1.3125 11.2586 1.3125 9.1875Z" fill="#0D1230"/>
<path fill-rule="evenodd" clip-rule="evenodd" d="M6.38733 15.8969C7.88479 13.5555 10.5104 12 13.5 12C16.4899 12 19.1159 13.5559 20.6132 15.8978C21.6484 17.5168 22.0963 19.469 21.8862 21.3724C21.8534 21.6699 21.6805 21.9338 21.4209 22.0827C19.0868 23.422 16.3814 24.1875 13.5 24.1875C10.6186 24.1875 7.91324 23.422 5.57906 22.0827C5.31949 21.9338 5.14662 21.6699 5.11379 21.3724C4.90367 19.4686 5.35176 17.5161 6.38733 15.8969Z" fill="#0D1230"/>
<path d="M4.85285 14.8171C4.8378 14.8402 4.82284 14.8634 4.80797 14.8867C3.60114 16.7736 3.04885 19.0208 3.21839 21.2363C2.45834 21.1208 1.72087 20.9351 1.01303 20.6858L0.869337 20.6352C0.607198 20.5429 0.424034 20.3048 0.401989 20.0278L0.389904 19.8759C0.380021 19.7517 0.375 19.6264 0.375 19.5C0.375 16.9814 2.36131 14.9268 4.85285 14.8171Z" fill="#0D1230"/>
<path d="M23.782 21.2362C23.9515 19.0212 23.3995 16.7745 22.1931 14.8877C22.1781 14.8641 22.1629 14.8406 22.1476 14.8171C24.6389 14.927 26.625 16.9816 26.625 19.5C26.625 19.6264 26.62 19.7518 26.6101 19.8759L26.598 20.0278C26.576 20.3048 26.3928 20.5429 26.1307 20.6352L25.987 20.6858C25.2793 20.9351 24.5419 21.1207 23.782 21.2362Z" fill="#0D1230"/>
</svg>
