<svg width="27" height="26" viewBox="0 0 27 26" fill="none" xmlns="http://www.w3.org/2000/svg">
<path fill-rule="evenodd" clip-rule="evenodd" d="M1.3125 0.8125C0.794733 0.8125 0.375 1.23223 0.375 1.75C0.375 2.26777 0.794733 2.6875 1.3125 2.6875H2.25V15.8125C2.25 17.8836 3.92893 19.5625 6 19.5625H7.51179L6.04811 23.9535C5.88438 24.4447 6.14984 24.9757 6.64104 25.1394C7.13223 25.3031 7.66316 25.0377 7.82689 24.5465L8.23821 23.3125H18.7618L19.1731 24.5465C19.3368 25.0377 19.8678 25.3031 20.359 25.1394C20.8502 24.9757 21.1156 24.4447 20.9519 23.9535L19.4882 19.5625H21C23.0711 19.5625 24.75 17.8836 24.75 15.8125V2.6875H25.6875C26.2053 2.6875 26.625 2.26777 26.625 1.75C26.625 1.23223 26.2053 0.8125 25.6875 0.8125H1.3125ZM9.48821 19.5625H17.5118L18.1368 21.4375H8.86321L9.48821 19.5625ZM19.5944 8.31834C20.0426 8.05908 20.1958 7.48559 19.9365 7.03741C19.6772 6.58922 19.1038 6.43607 18.6556 6.69533C16.9471 7.6836 15.4396 8.97963 14.2084 10.5077L12.2879 8.58719C11.9218 8.22107 11.3282 8.22107 10.9621 8.58719L7.21209 12.3372C6.84597 12.7033 6.84597 13.2969 7.21209 13.663C7.5782 14.0291 8.1718 14.0291 8.53791 13.663L11.625 10.5759L13.6466 12.5975C13.8428 12.7937 14.1159 12.8929 14.3923 12.8684C14.6687 12.8439 14.92 12.6982 15.0787 12.4706C16.2587 10.7771 17.8018 9.35535 19.5944 8.31834Z" fill="#0087E9"/>
</svg>
