<svg width="23" height="28" viewBox="0 0 23 28" fill="none" xmlns="http://www.w3.org/2000/svg">
<path fill-rule="evenodd" clip-rule="evenodd" d="M6.12729 6.5H10.8096L10.8125 6.5H15.0373C17.3644 6.50335 19.2499 8.39086 19.2499 10.7187V22.4375C21.3209 22.4375 22.9999 20.7586 22.9999 18.6875V6.63527C22.9999 4.75352 21.5939 3.12075 19.6698 2.96105C19.3901 2.93783 19.1098 2.91651 18.8291 2.89708C18.2042 1.69559 16.9479 0.875 15.5 0.875H13.625C12.1771 0.875 10.9209 1.69558 10.296 2.89706C10.0151 2.91649 9.73474 2.93783 9.45492 2.96105C7.57707 3.11691 6.19277 4.67587 6.12729 6.5ZM13.625 2.75C12.5895 2.75 11.75 3.58947 11.75 4.625H17.375C17.375 3.58947 16.5355 2.75 15.5 2.75H13.625Z" fill="#0D1230"/>
<path fill-rule="evenodd" clip-rule="evenodd" d="M0.5 10.7188C0.5 9.42433 1.54933 8.375 2.84375 8.375H15.0312C16.3257 8.375 17.375 9.42433 17.375 10.7188V24.7812C17.375 26.0757 16.3257 27.125 15.0312 27.125H2.84375C1.54933 27.125 0.5 26.0757 0.5 24.7812V10.7188ZM12.4821 16.4607C12.8055 16.0563 12.74 15.4664 12.3357 15.1429C11.9313 14.8195 11.3414 14.885 11.0179 15.2893L7.92226 19.1589L6.78791 18.0246C6.4218 17.6585 5.8282 17.6585 5.46209 18.0246C5.09597 18.3907 5.09597 18.9843 5.46209 19.3504L7.33709 21.2254C7.52565 21.414 7.78559 21.5133 8.05184 21.4986C8.3181 21.4838 8.56548 21.3564 8.73206 21.1482L12.4821 16.4607Z" fill="#0D1230"/>
</svg>
