<svg width="34" height="35" viewBox="0 0 34 35" fill="none" xmlns="http://www.w3.org/2000/svg">
<path fill-rule="evenodd" clip-rule="evenodd" d="M2.125 10.5938C2.125 9.12674 3.31424 7.9375 4.78125 7.9375H13.2812C14.7483 7.9375 15.9375 9.12674 15.9375 10.5938V15.9062C15.9375 17.3733 14.7483 18.5625 13.2812 18.5625H4.78125C3.31424 18.5625 2.125 17.3733 2.125 15.9062V10.5938ZM19.125 12.7188C19.125 11.2517 20.3142 10.0625 21.7812 10.0625H29.2188C30.6858 10.0625 31.875 11.2517 31.875 12.7188V24.4062C31.875 25.8733 30.6858 27.0625 29.2188 27.0625H21.7812C20.3142 27.0625 19.125 25.8733 19.125 24.4062V12.7188ZM4.25 23.3438C4.25 21.8767 5.43924 20.6875 6.90625 20.6875H14.3438C15.8108 20.6875 17 21.8767 17 23.3438V26.5312C17 27.9983 15.8108 29.1875 14.3438 29.1875H6.90625C5.43924 29.1875 4.25 27.9983 4.25 26.5312V23.3438Z" fill="#0B99FF"/>
</svg>
