<svg width="34" height="35" viewBox="0 0 34 35" fill="none" xmlns="http://www.w3.org/2000/svg">
<path d="M6.375 5.8125C4.02779 5.8125 2.125 7.71529 2.125 10.0625V11.125H31.875V10.0625C31.875 7.71529 29.9722 5.8125 27.625 5.8125H6.375Z" fill="#0B99FF"/>
<path fill-rule="evenodd" clip-rule="evenodd" d="M31.875 14.3125H2.125V24.9375C2.125 27.2847 4.02779 29.1875 6.375 29.1875H27.625C29.9722 29.1875 31.875 27.2847 31.875 24.9375V14.3125ZM6.375 19.625C6.375 19.0382 6.8507 18.5625 7.4375 18.5625H15.9375C16.5243 18.5625 17 19.0382 17 19.625C17 20.2118 16.5243 20.6875 15.9375 20.6875H7.4375C6.8507 20.6875 6.375 20.2118 6.375 19.625ZM7.4375 22.8125C6.8507 22.8125 6.375 23.2882 6.375 23.875C6.375 24.4618 6.8507 24.9375 7.4375 24.9375H11.6875C12.2743 24.9375 12.75 24.4618 12.75 23.875C12.75 23.2882 12.2743 22.8125 11.6875 22.8125H7.4375Z" fill="#0B99FF"/>
</svg>
