<svg width="34" height="35" viewBox="0 0 34 35" fill="none" xmlns="http://www.w3.org/2000/svg">
<path d="M23.375 11.125H10.625V23.875H23.375V11.125Z" fill="#0B99FF"/>
<path fill-rule="evenodd" clip-rule="evenodd" d="M11.6875 3.6875C12.2743 3.6875 12.75 4.1632 12.75 4.75V5.8125H15.9375V4.75C15.9375 4.1632 16.4132 3.6875 17 3.6875C17.5868 3.6875 18.0625 4.1632 18.0625 4.75V5.8125H21.25V4.75C21.25 4.1632 21.7257 3.6875 22.3125 3.6875C22.8993 3.6875 23.375 4.1632 23.375 4.75V5.8125H24.4375C26.7847 5.8125 28.6875 7.71529 28.6875 10.0625V11.125H29.75C30.3368 11.125 30.8125 11.6007 30.8125 12.1875C30.8125 12.7743 30.3368 13.25 29.75 13.25H28.6875V16.4375H29.75C30.3368 16.4375 30.8125 16.9132 30.8125 17.5C30.8125 18.0868 30.3368 18.5625 29.75 18.5625H28.6875V21.75H29.75C30.3368 21.75 30.8125 22.2257 30.8125 22.8125C30.8125 23.3993 30.3368 23.875 29.75 23.875H28.6875V24.9375C28.6875 27.2847 26.7847 29.1875 24.4375 29.1875H23.375V30.25C23.375 30.8368 22.8993 31.3125 22.3125 31.3125C21.7257 31.3125 21.25 30.8368 21.25 30.25V29.1875H18.0625V30.25C18.0625 30.8368 17.5868 31.3125 17 31.3125C16.4132 31.3125 15.9375 30.8368 15.9375 30.25V29.1875H12.75V30.25C12.75 30.8368 12.2743 31.3125 11.6875 31.3125C11.1007 31.3125 10.625 30.8368 10.625 30.25V29.1875H9.5625C7.21529 29.1875 5.3125 27.2847 5.3125 24.9375V23.875H4.25C3.6632 23.875 3.1875 23.3993 3.1875 22.8125C3.1875 22.2257 3.6632 21.75 4.25 21.75H5.3125V18.5625H4.25C3.6632 18.5625 3.1875 18.0868 3.1875 17.5C3.1875 16.9132 3.6632 16.4375 4.25 16.4375H5.3125V13.25H4.25C3.6632 13.25 3.1875 12.7743 3.1875 12.1875C3.1875 11.6007 3.6632 11.125 4.25 11.125H5.3125V10.0625C5.3125 7.71529 7.21529 5.8125 9.5625 5.8125H10.625V4.75C10.625 4.1632 11.1007 3.6875 11.6875 3.6875ZM8.5 10.0625C8.5 9.4757 8.9757 9 9.5625 9H24.4375C25.0243 9 25.5 9.4757 25.5 10.0625V24.9375C25.5 25.5243 25.0243 26 24.4375 26H9.5625C8.9757 26 8.5 25.5243 8.5 24.9375V10.0625Z" fill="#0B99FF"/>
</svg>
