<svg width="34" height="35" viewBox="0 0 34 35" fill="none" xmlns="http://www.w3.org/2000/svg">
<path d="M17 11.125C15.2396 11.125 13.8125 12.5521 13.8125 14.3125C13.8125 16.0729 15.2396 17.5 17 17.5C18.7604 17.5 20.1875 16.0729 20.1875 14.3125C20.1875 12.5521 18.7604 11.125 17 11.125Z" fill="#0B99FF"/>
<path fill-rule="evenodd" clip-rule="evenodd" d="M2.125 7.40625C2.125 5.93924 3.31424 4.75 4.78125 4.75H29.2188C30.6858 4.75 31.875 5.93924 31.875 7.40625V21.2188C31.875 22.6858 30.6858 23.875 29.2188 23.875H4.78125C3.31424 23.875 2.125 22.6858 2.125 21.2188V7.40625ZM11.6875 14.3125C11.6875 11.3785 14.066 9 17 9C19.934 9 22.3125 11.3785 22.3125 14.3125C22.3125 17.2465 19.934 19.625 17 19.625C14.066 19.625 11.6875 17.2465 11.6875 14.3125ZM26.5625 13.25C25.9757 13.25 25.5 13.7257 25.5 14.3125V14.3231C25.5 14.9099 25.9757 15.3856 26.5625 15.3856H26.5731C27.1599 15.3856 27.6356 14.9099 27.6356 14.3231V14.3125C27.6356 13.7257 27.1599 13.25 26.5731 13.25H26.5625ZM6.375 14.3125C6.375 13.7257 6.8507 13.25 7.4375 13.25H7.44813C8.03493 13.25 8.51063 13.7257 8.51063 14.3125V14.3231C8.51063 14.9099 8.03493 15.3856 7.44813 15.3856H7.4375C6.8507 15.3856 6.375 14.9099 6.375 14.3231V14.3125Z" fill="#0B99FF"/>
<path d="M3.1875 26C2.6007 26 2.125 26.4757 2.125 27.0625C2.125 27.6493 2.6007 28.125 3.1875 28.125C10.8376 28.125 18.247 29.1481 25.2872 31.0644C26.9738 31.5235 28.6875 30.2738 28.6875 28.4864V27.0625C28.6875 26.4757 28.2118 26 27.625 26H3.1875Z" fill="#0B99FF"/>
</svg>
