<svg width="34" height="35" viewBox="0 0 34 35" fill="none" xmlns="http://www.w3.org/2000/svg">
<path fill-rule="evenodd" clip-rule="evenodd" d="M7.31869 4.2136V5.42801C5.85262 5.63775 4.4018 5.895 2.96787 6.19816C2.41038 6.31602 2.04512 6.85268 2.13997 7.41455C2.86311 11.6981 6.43187 15.0135 10.8363 15.3473C11.9493 16.2563 13.2721 16.9201 14.7214 17.2549C14.5814 18.9098 14.02 20.4433 13.145 21.75H12.0996C10.6326 21.75 9.44333 22.9392 9.44333 24.4062V28.125H8.38068C6.62027 28.125 5.19318 29.5521 5.19318 31.3125C5.19318 31.8993 5.66887 32.375 6.25568 32.375H27.5057C28.0925 32.375 28.5682 31.8993 28.5682 31.3125C28.5682 29.5521 27.1411 28.125 25.3807 28.125H24.3183V24.4062C24.3183 22.9392 23.1291 21.75 21.6621 21.75H20.616C19.7412 20.4434 19.1802 18.91 19.0402 17.255C20.4898 16.9203 21.8129 16.2564 22.9261 15.3473C27.3305 15.0135 30.8993 11.6981 31.6224 7.41455C31.7173 6.85268 31.352 6.31602 30.7945 6.19816C29.3606 5.895 27.9098 5.63775 26.4437 5.42801V4.2136C26.4437 3.67763 26.0445 3.22558 25.5127 3.15926C22.6846 2.80661 19.8039 2.625 16.8812 2.625C13.9585 2.625 11.0778 2.80661 8.24972 3.15926C7.71787 3.22558 7.31869 3.67763 7.31869 4.2136ZM7.31869 7.9375C7.31869 9.63209 7.75996 11.2241 8.53312 12.6043C6.61053 11.7437 5.11949 10.0905 4.4767 8.06057C5.41691 7.87836 6.3644 7.71647 7.31869 7.57537V7.9375ZM26.4437 7.9375V7.57537C27.398 7.71647 28.3455 7.87836 29.2857 8.06057C28.6429 10.0905 27.1518 11.7437 25.2293 12.6043C26.0024 11.2241 26.4437 9.63209 26.4437 7.9375Z" fill="#0B99FF"/>
</svg>
