<svg width="25" height="26" viewBox="0 0 25 26" fill="none" xmlns="http://www.w3.org/2000/svg">
<path fill-rule="evenodd" clip-rule="evenodd" d="M6.625 4.5625C6.625 2.49143 8.30393 0.8125 10.375 0.8125H14.125C16.1961 0.8125 17.875 2.49143 17.875 4.5625V4.81872C19.0406 4.92542 20.1967 5.06495 21.3426 5.2364C23.1601 5.50835 24.4375 7.08954 24.4375 8.88211V12.6736C24.4375 14.1875 23.5204 15.6141 22.0172 16.1139C18.9457 17.135 15.6615 17.6875 12.25 17.6875C8.83858 17.6875 5.55428 17.135 2.48283 16.1138C0.97955 15.614 0.0625 14.1875 0.0625 12.6736V8.88211C0.0625 7.08954 1.33988 5.50835 3.15745 5.2364C4.30325 5.06496 5.45942 4.92542 6.625 4.81872V4.5625ZM16 4.5625V4.67603C14.7596 4.60071 13.5092 4.5625 12.25 4.5625C10.9908 4.5625 9.74044 4.60071 8.5 4.67603V4.5625C8.5 3.52697 9.33947 2.6875 10.375 2.6875H14.125C15.1605 2.6875 16 3.52697 16 4.5625ZM12.25 14.875C12.7678 14.875 13.1875 14.4553 13.1875 13.9375C13.1875 13.4197 12.7678 13 12.25 13C11.7322 13 11.3125 13.4197 11.3125 13.9375C11.3125 14.4553 11.7322 14.875 12.25 14.875Z" fill="#0D1230"/>
<path d="M1 20.9999V17.5049C1.2788 17.6578 1.57621 17.7883 1.89129 17.8931C5.15109 18.9769 8.63501 19.5625 12.25 19.5625C15.865 19.5625 19.3489 18.9769 22.6087 17.8931C22.9238 17.7883 23.2212 17.6578 23.5 17.5049V21C23.5 22.8149 22.191 24.4094 20.3461 24.6543C17.6969 25.006 14.9944 25.1875 12.25 25.1875C9.50559 25.1875 6.80308 25.006 4.15392 24.6543C2.30905 24.4094 1 22.8148 1 20.9999Z" fill="#0D1230"/>
</svg>
