<svg width="21" height="31" viewBox="0 0 21 31" fill="none" xmlns="http://www.w3.org/2000/svg">
<path fill-rule="evenodd" clip-rule="evenodd" d="M13.418 0.916016C14.1538 0.915783 14.8625 1.19369 15.4021 1.69403C15.9417 2.19437 16.2722 2.88016 16.3273 3.61393L16.3346 3.83268V6.74935H17.793C18.5288 6.74912 19.2375 7.02703 19.7771 7.52737C20.3167 8.02771 20.6472 8.7135 20.7023 9.44727L20.7096 9.66602V25.7077C20.7096 26.4812 20.4023 27.2231 19.8554 27.7701C19.3084 28.3171 18.5665 28.6244 17.793 28.6244C17.7926 28.9961 17.6502 29.3536 17.3951 29.6238C17.1399 29.8941 16.7912 30.0568 16.4201 30.0786C16.049 30.1003 15.6837 29.9796 15.3986 29.7411C15.1136 29.5025 14.9304 29.1641 14.8865 28.795L14.8763 28.6244H6.1263C6.1263 29.0111 5.97266 29.3821 5.69917 29.6556C5.42568 29.929 5.05474 30.0827 4.66797 30.0827C4.2812 30.0827 3.91026 29.929 3.63677 29.6556C3.36328 29.3821 3.20964 29.0111 3.20964 28.6244C2.47379 28.6246 1.76506 28.3467 1.2255 27.8463C0.685947 27.346 0.355449 26.6602 0.300261 25.9264L0.292969 25.7077V9.66602C0.292736 8.93018 0.570645 8.22144 1.07099 7.68188C1.57133 7.14233 2.25712 6.81183 2.99089 6.75664L3.20964 6.74935H4.66797V3.83268C4.66774 3.09684 4.94564 2.38811 5.44598 1.84855C5.94633 1.30899 6.63212 0.978495 7.36589 0.923307L7.58464 0.916016H13.418ZM7.58464 12.5827C7.19786 12.5827 6.82693 12.7363 6.55344 13.0098C6.27995 13.2833 6.1263 13.6542 6.1263 14.041V21.3327C6.1263 21.7195 6.27995 22.0904 6.55344 22.3639C6.82693 22.6374 7.19786 22.791 7.58464 22.791C7.97141 22.791 8.34234 22.6374 8.61583 22.3639C8.88932 22.0904 9.04297 21.7195 9.04297 21.3327V14.041C9.04297 13.6542 8.88932 13.2833 8.61583 13.0098C8.34234 12.7363 7.97141 12.5827 7.58464 12.5827ZM13.418 12.5827C13.0608 12.5827 12.716 12.7139 12.4491 12.9512C12.1822 13.1886 12.0116 13.5157 11.9698 13.8704L11.9596 14.041V21.3327C11.96 21.7044 12.1024 22.0619 12.3575 22.3322C12.6127 22.6025 12.9614 22.7651 13.3325 22.7869C13.7036 22.8087 14.0689 22.688 14.354 22.4494C14.639 22.2108 14.8222 21.8724 14.8661 21.5033L14.8763 21.3327V14.041C14.8763 13.6542 14.7227 13.2833 14.4492 13.0098C14.1757 12.7363 13.8047 12.5827 13.418 12.5827ZM13.418 3.83268H7.58464V6.74935H13.418V3.83268Z" fill="#0D1230"/>
</svg>
