<svg width="224" height="38" viewBox="0 0 224 38" fill="none" xmlns="http://www.w3.org/2000/svg">
<path d="M86.1953 34.2204L88.7225 30.2761C90.8605 31.9811 94.0221 32.9538 97.1784 32.9538C100.335 32.9538 101.987 31.9811 101.987 30.228C101.987 28.475 100.431 27.6947 96.7412 27.3046C90.4712 26.722 86.9257 24.0872 86.9257 19.8971C86.9257 15.7069 91.1057 12.543 97.3277 12.543C100.974 12.543 104.179 13.4676 106.855 15.3221L104.472 19.2183C102.334 17.8554 100.052 17.1713 97.5729 17.1713C94.1234 17.1713 92.2733 18.144 92.2733 19.8971C92.2733 21.4577 93.6809 22.2861 97.1837 22.6762C104.28 23.4565 107.388 25.744 107.388 30.2761C107.388 34.8083 103.256 37.7799 97.0344 37.7799C92.9984 37.7799 89.4049 36.6094 86.1953 34.2258V34.2204Z" fill="white"/>
<path d="M131.152 12.207L131.104 16.6109C129.259 14.27 126.097 12.8591 122.355 12.8591C115.306 12.8591 110.449 18.0219 110.449 25.4294C110.449 32.837 115.306 37.9998 122.355 37.9998C126.049 37.9998 129.254 36.5888 131.104 34.2479L131.152 37.4653H136.014V17.3271C135.273 16.953 134.175 16.2903 133.108 15.1626C132.074 14.0669 131.482 12.9606 131.152 12.207ZM123.229 33.0294C118.905 33.0294 115.893 29.9135 115.893 25.4294C115.893 20.9454 118.905 17.8295 123.229 17.8295C127.553 17.8295 130.565 20.9454 130.565 25.4294C130.565 29.9135 127.553 33.0294 123.229 33.0294Z" fill="white"/>
<path d="M175.912 25.1609C175.912 17.7053 180.918 12.6387 188.356 12.6387C196.811 12.6387 201.477 18.1916 200.698 27.2025H181.499C181.936 30.7086 184.853 32.9533 189.081 32.9533C191.8 32.9533 194.524 31.9806 195.98 30.4681L199.285 33.6855C196.902 36.2669 193.063 37.8756 188.931 37.8756C181.009 37.8756 175.906 32.8571 175.906 25.1609H175.912ZM195.495 22.9697C195.105 19.5598 192.482 17.3686 188.494 17.3686C184.506 17.3686 182.224 19.4155 181.547 22.9697H195.495Z" fill="white"/>
<path d="M205.658 13.125H210.52L210.568 16.8288C212.466 13.9053 214.844 12.6387 217.856 12.6387C220.192 12.6387 222.473 13.419 223.929 14.7337L221.498 19.1644C220.138 18.2397 218.923 17.8496 217.462 17.8496C213.575 17.8496 211.096 20.725 211.096 25.4495V37.1915H205.652V13.125H205.658Z" fill="white"/>
<path d="M13.329 23.4355L0 3.17969H6.73379L16.1334 18.0428L25.8315 3.17969H32.6666L18.9538 23.4355V37.1816H13.3343V23.4355H13.329Z" fill="white"/>
<path d="M27.9922 25.1833C27.9922 17.9949 32.9826 12.6504 40.788 12.6504C48.5934 12.6504 53.5305 17.9949 53.5305 25.1833C53.5305 32.3717 48.5401 37.7163 40.788 37.7163C33.0359 37.7163 27.9922 32.3717 27.9922 25.1833ZM40.788 32.7619C45.2452 32.7619 48.1029 29.3628 48.1029 25.1833C48.1029 21.0039 45.2452 17.6048 40.788 17.6048C36.3308 17.6048 33.4197 21.0039 33.4197 25.1833C33.4197 29.3628 36.2775 32.7619 40.788 32.7619Z" fill="white"/>
<path d="M58.2319 26.4487V13.1836H63.6595V26.1067C63.6595 30.3342 65.7921 32.7606 69.2789 32.7606C73.251 32.7606 75.9168 29.8479 75.9168 25.8127V13.1836H81.3443V37.1806H76.4979L76.4499 34.0701C74.4133 36.4484 71.6035 37.6669 68.3086 37.6669C62.2039 37.6669 58.2266 33.2951 58.2266 26.4434L58.2319 26.4487Z" fill="white"/>
<path d="M167.722 14.0615C165.574 13.8744 163.425 13.6553 161.309 13.4041V8.07025C161.309 2.53866 163.921 0.0481009 169.786 0C171.577 0.0481009 173.097 0.240504 174.2 0.545143V5.0399C173.433 4.85284 172.596 4.74061 171.886 4.74061C169.045 4.74061 167.717 6.03398 167.717 8.81314V14.0615H167.722Z" fill="white"/>
<path d="M174.054 17.5254C172.524 17.4345 171.058 17.3383 169.666 17.2261C167.923 17.0925 166.297 16.9428 164.788 16.7932C164.489 16.7611 164.191 16.7344 163.897 16.7023C163.023 16.6115 162.197 16.5206 161.413 16.4244C160.89 16.3656 160.389 16.3015 159.915 16.2427C159.318 16.1679 158.496 16.0663 157.478 15.9167C155.196 15.5853 151.939 15.0455 148.105 14.169C147.252 13.9766 146.372 13.7628 145.466 13.533C145.013 13.4208 144.554 13.2979 144.091 13.1749C143.264 12.9558 142.48 12.7367 141.734 12.5069C140.63 12.1702 139.612 11.8067 138.652 11.3899C137.431 10.8608 136.312 10.2408 135.251 9.46048C135.005 9.27877 134.376 8.80311 133.641 8.09228C132.788 7.26922 131.615 5.96516 130.543 4.0625C130.724 5.08331 130.975 5.94378 131.215 6.63322C131.689 8.00677 132.228 8.99551 132.452 9.38566C132.649 9.7384 132.809 9.98959 132.953 10.2087C133.753 11.4593 134.504 12.3519 134.92 12.8275C135.405 13.378 135.901 13.8804 136.397 14.34C136.397 14.34 136.861 14.773 137.293 15.1364C138.77 16.3817 141.281 17.6109 141.707 17.814V37.5193H148.121V19.6258C148.841 19.8182 149.561 20.0053 150.291 20.187C150.414 20.219 150.547 20.2511 150.675 20.2832C151.64 20.529 152.61 20.7695 153.597 20.9993C156.033 21.5819 158.427 22.1057 160.768 22.5813C160.944 22.6187 161.125 22.6562 161.301 22.6936V37.5247H167.715V24.0457C167.891 24.0831 168.072 24.1206 168.248 24.158L172.039 24.9757L172.577 25.0933C172.588 22.1538 173.393 19.5937 174.806 17.5681C174.555 17.5521 174.305 17.5414 174.054 17.5254Z" fill="white"/>
<path d="M150.194 0C144.953 0.0427563 142.415 1.79576 141.85 5.80951C140.011 5.89503 138.539 5.63849 137.547 5.39264C136.556 5.14679 135.852 4.85819 135.681 4.78871C134.828 4.43597 133.565 3.80531 132.227 2.6402C133.181 4.07788 134.141 5.07197 134.812 5.69728C138.091 8.74901 141.877 9.79654 144.713 10.5448C146.147 10.9242 147.352 11.138 148.131 11.2556C148.131 11.2075 148.131 10.9616 148.131 10.641C148.131 10.5768 148.131 10.5127 148.131 10.4486C148.131 10.315 148.131 10.1813 148.131 10.0531C148.131 9.43845 148.131 8.81849 148.131 8.81849C148.131 8.48178 148.152 8.16111 148.189 7.86716C148.472 5.76676 149.815 4.74595 152.295 4.74595C153.004 4.74595 153.835 4.85819 154.609 5.04524V0.545143C153.505 0.23516 151.985 0.0481009 150.194 0Z" fill="#49BEDA"/>
</svg>
