<svg width="169" height="30" viewBox="0 0 169 30" fill="none" xmlns="http://www.w3.org/2000/svg">
<g clip-path="url(#clip0_1183_1286)">
<path d="M65.0547 26.6162L66.962 23.6061C68.5755 24.9072 70.9616 25.6495 73.3437 25.6495C75.7258 25.6495 76.9732 24.9072 76.9732 23.5694C76.9732 22.2315 75.7983 21.636 73.0138 21.3383C68.2818 20.8937 65.6059 18.8829 65.6059 15.6851C65.6059 12.4874 68.7606 10.0728 73.4564 10.0728C76.2087 10.0728 78.627 10.7784 80.6469 12.1937L78.8483 15.1671C77.2348 14.127 75.5126 13.605 73.6415 13.605C71.0381 13.605 69.6418 14.3473 69.6418 15.6851C69.6418 16.8761 70.7041 17.5083 73.3478 17.8061C78.7034 18.4016 81.0493 20.1473 81.0493 23.6061C81.0493 27.0649 77.9309 29.3327 73.2351 29.3327C70.1891 29.3327 67.477 28.4394 65.0547 26.6203V26.6162Z" fill="#293893"/>
<path d="M98.9799 9.81592L98.9437 13.1768C97.5515 11.3903 95.1654 10.3135 92.3406 10.3135C87.0212 10.3135 83.3555 14.2536 83.3555 19.9068C83.3555 25.5599 87.0212 29.5 92.3406 29.5C95.1291 29.5 97.5474 28.4232 98.9437 26.6367L98.9799 29.0921H102.65V13.7234C102.09 13.4379 101.261 12.9321 100.457 12.0715C99.676 11.2353 99.2294 10.391 98.9799 9.81592ZM93.0005 25.7068C89.7372 25.7068 87.4638 23.3289 87.4638 19.9068C87.4638 16.4847 89.7372 14.1068 93.0005 14.1068C96.2639 14.1068 98.5373 16.4847 98.5373 19.9068C98.5373 23.3289 96.2639 25.7068 93.0005 25.7068Z" fill="#293893"/>
<path d="M132.762 19.703C132.762 14.0132 136.54 10.1465 142.153 10.1465C148.535 10.1465 152.056 14.3843 151.469 21.2611H136.979C137.309 23.9368 139.51 25.6499 142.701 25.6499C144.753 25.6499 146.809 24.9075 147.907 23.7532L150.402 26.2086C148.604 28.1787 145.706 29.4064 142.588 29.4064C136.609 29.4064 132.758 25.5764 132.758 19.703H132.762ZM147.541 18.0307C147.248 15.4285 145.268 13.7562 142.258 13.7562C139.248 13.7562 137.526 15.3184 137.015 18.0307H147.541Z" fill="#293893"/>
<path d="M155.211 10.5177H158.881L158.917 13.3442C160.349 11.1132 162.144 10.1465 164.418 10.1465C166.18 10.1465 167.902 10.742 169.001 11.7454L167.166 15.1267C166.14 14.421 165.222 14.1233 164.12 14.1233C161.186 14.1233 159.315 16.3177 159.315 19.9233V28.8843H155.207V10.5177H155.211Z" fill="#293893"/>
<path d="M10.0595 18.3853L0 2.92676H5.08207L12.176 14.2698L19.4954 2.92676H24.6539L14.3046 18.3853V28.8758H10.0635V18.3853H10.0595Z" fill="#293893"/>
<path d="M21.125 19.719C21.125 14.2331 24.8913 10.1543 30.7821 10.1543C36.673 10.1543 40.399 14.2331 40.399 19.719C40.399 25.2049 36.6328 29.2837 30.7821 29.2837C24.9315 29.2837 21.125 25.2049 21.125 19.719ZM30.7821 25.5027C34.146 25.5027 36.3028 22.9086 36.3028 19.719C36.3028 16.5294 34.146 13.9353 30.7821 13.9353C27.4182 13.9353 25.2212 16.5294 25.2212 19.719C25.2212 22.9086 27.378 25.5027 30.7821 25.5027Z" fill="#293893"/>
<path d="M43.9493 20.686V10.5625H48.0456V20.4249C48.0456 23.6512 49.6551 25.503 52.2867 25.503C55.2844 25.503 57.2963 23.2801 57.2963 20.2006V10.5625H61.3926V28.8761H57.7349L57.6987 26.5023C56.1616 28.3174 54.041 29.2473 51.5543 29.2473C46.9471 29.2473 43.9453 25.9109 43.9453 20.6819L43.9493 20.686Z" fill="#293893"/>
<path d="M126.583 11.2312C124.961 11.0885 123.34 10.9212 121.742 10.7295V6.65893C121.742 2.43741 123.714 0.536709 128.14 0.5C129.492 0.536709 130.639 0.683544 131.472 0.916034V4.34627C130.892 4.20352 130.261 4.11786 129.725 4.11786C127.581 4.11786 126.579 5.10492 126.579 7.22588V11.2312H126.583Z" fill="#293893"/>
<path d="M131.362 13.874C130.207 13.8047 129.1 13.7313 128.05 13.6456C126.734 13.5436 125.507 13.4294 124.368 13.3152C124.143 13.2907 123.918 13.2704 123.696 13.2459C123.036 13.1765 122.413 13.1072 121.821 13.0338C121.427 12.9889 121.049 12.94 120.691 12.8951C120.24 12.838 119.62 12.7605 118.852 12.6463C117.13 12.3934 114.671 11.9815 111.778 11.3125C111.134 11.1657 110.47 11.0026 109.786 10.8272C109.444 10.7415 109.098 10.6477 108.748 10.5539C108.124 10.3867 107.533 10.2194 106.969 10.0441C106.136 9.78709 105.368 9.50974 104.644 9.19159C103.722 8.7878 102.877 8.31466 102.076 7.71916C101.891 7.58048 101.417 7.21747 100.861 6.675C100.217 6.04687 99.3322 5.05165 98.5234 3.59961C98.6602 4.37865 98.8494 5.03533 99.0304 5.56149C99.3886 6.60974 99.795 7.36431 99.964 7.66206C100.113 7.93125 100.234 8.12296 100.342 8.29019C100.946 9.24462 101.513 9.92577 101.827 10.2888C102.193 10.7089 102.567 11.0923 102.942 11.4431C102.942 11.4431 103.292 11.7734 103.618 12.0508C104.732 13.0012 106.627 13.9393 106.949 14.0943V29.1327H111.79V15.477C112.333 15.6238 112.876 15.7666 113.428 15.9052C113.52 15.9297 113.621 15.9542 113.717 15.9787C114.446 16.1663 115.178 16.3498 115.922 16.5252C117.761 16.9698 119.568 17.3695 121.334 17.7325C121.467 17.7611 121.604 17.7896 121.737 17.8182V29.1367H126.577V18.8501C126.71 18.8787 126.847 18.9072 126.98 18.9358L129.841 19.5598L130.247 19.6495C130.255 17.4062 130.863 15.4525 131.929 13.9066C131.74 13.8944 131.551 13.8862 131.362 13.874Z" fill="#293893"/>
<path d="M113.349 0.5C109.394 0.53263 107.479 1.87046 107.052 4.93361C105.664 4.99887 104.553 4.80309 103.805 4.61547C103.056 4.42785 102.525 4.20759 102.396 4.15457C101.753 3.88537 100.799 3.40408 99.7891 2.51491C100.509 3.6121 101.234 4.37074 101.741 4.84796C104.215 7.17693 107.072 7.97637 109.213 8.5474C110.295 8.83699 111.205 9.00014 111.792 9.08987C111.792 9.05316 111.792 8.86554 111.792 8.62082C111.792 8.57187 111.792 8.52292 111.792 8.47398C111.792 8.37201 111.792 8.27004 111.792 8.17215C111.792 7.70309 111.792 7.22996 111.792 7.22996C111.792 6.973 111.808 6.72827 111.836 6.50394C112.05 4.90098 113.064 4.12194 114.935 4.12194C115.47 4.12194 116.098 4.20759 116.681 4.35035V0.916034C115.848 0.679466 114.701 0.536709 113.349 0.5Z" fill="#49BEDA"/>
</g>
<defs>
<clipPath id="clip0_1183_1286">
<rect width="169" height="29" fill="white" transform="translate(0 0.5)"/>
</clipPath>
</defs>
</svg>
